<svg xmlns="http://www.w3.org/2000/svg" xmlns:xlink="http://www.w3.org/1999/xlink" viewBox="0,0,256,256" width="50px" height="50px"><g fill="#ffffff" fill-rule="nonzero" stroke="none" stroke-width="1" stroke-linecap="butt" stroke-linejoin="miter" stroke-miterlimit="10" stroke-dasharray="" stroke-dashoffset="0" font-family="none" font-weight="none" font-size="none" text-anchor="none" style="mix-blend-mode: normal"><g transform="scale(5.12,5.12)"><path d="M5,3c-1.28125,0 -2.53125,0.23047 -3.5,1.03125c-0.96875,0.80078 -1.5,2.13672 -1.5,3.78125c0,8.89063 0.45313,14.26172 2.875,17.65625c1.21094,1.69922 2.91406,2.78516 5.09375,3.40625c0.45703,0.12891 1.03125,0.1875 1.53125,0.28125c-1.29687,0.66797 -2.35156,1.49609 -3.0625,2.4375c-1.62109,2.14844 -1.85156,4.55859 -1.15625,6.1875c0.00391,0.00781 -0.00391,0.02344 0,0.03125c0.95703,2.37891 2.45703,4.59375 4.1875,6.28125c1.73438,1.69531 3.69141,2.90625 5.71875,2.90625c0.78516,0 1.35938,-0.29297 2.21875,-0.78125c0.85938,-0.48828 1.85156,-1.22656 2.90625,-2.1875c1.69922,-1.55078 3.39453,-3.92969 4.6875,-6.8125c1.29297,2.88281 2.98828,5.26172 4.6875,6.8125c1.05469,0.96094 2.04688,1.69922 2.90625,2.1875c0.85938,0.48828 1.43359,0.78125 2.21875,0.78125c2.02734,0 3.98438,-1.21094 5.71875,-2.90625c1.73438,-1.69531 3.23047,-3.92187 4.1875,-6.3125c0,-0.01172 0,-0.01953 0,-0.03125c0.62891,-1.60547 0.39844,-3.99609 -1.21875,-6.15625c-0.70703,-0.94141 -1.73828,-1.76562 -3.03125,-2.4375c0.51172,-0.09766 1.09766,-0.14844 1.5625,-0.28125c2.17969,-0.62109 3.88281,-1.70703 5.09375,-3.40625c2.42188,-3.39453 2.875,-8.76562 2.875,-17.65625c0,-1.6875 -0.51953,-3.02344 -1.5,-3.8125c-0.98047,-0.78906 -2.23437,-1 -3.5,-1c-1.53125,0 -3.24609,0.70703 -5.15625,1.84375c-1.91016,1.13672 -3.96094,2.72656 -6,4.625c-3.51172,3.26953 -6.83203,7.46484 -8.84375,11.8125c-2.01172,-4.34766 -5.33203,-8.54297 -8.84375,-11.8125c-2.03906,-1.89844 -4.08984,-3.48828 -6,-4.625c-1.91016,-1.13672 -3.625,-1.84375 -5.15625,-1.84375zM5,5c0.82031,0 2.375,0.51953 4.125,1.5625c1.75,1.04297 3.73828,2.55859 5.6875,4.375c3.89844,3.62891 7.63672,8.48438 9.25,13.09375c0.14453,0.39063 0.51953,0.65234 0.9375,0.65234c0.41797,0 0.79297,-0.26172 0.9375,-0.65234c1.61328,-4.60937 5.35156,-9.46484 9.25,-13.09375c1.94922,-1.81641 3.9375,-3.33203 5.6875,-4.375c1.75,-1.04297 3.30469,-1.5625 4.125,-1.5625c1.03516,0 1.80469,0.20313 2.25,0.5625c0.44531,0.35938 0.75,0.9375 0.75,2.25c0,8.80859 -0.62109,13.87109 -2.5,16.5c-0.9375,1.31641 -2.16016,2.125 -4.03125,2.65625c-1.87109,0.53125 -4.35547,0.71875 -7.5625,0.71875c-0.54687,0.00781 -0.98437,0.45313 -0.98437,1c0,0.54688 0.4375,0.99219 0.98438,1c4.47266,0 6.79297,1.48047 8,3.09375c1.20703,1.61328 1.23828,3.55859 0.96875,4.25c-0.84375,2.10938 -2.23437,4.17578 -3.75,5.65625c-1.50391,1.46875 -3.10937,2.29688 -4.28125,2.3125c-0.01562,-0.03125 -0.625,-0.17578 -1.25,-0.53125c-0.71484,-0.40625 -1.61719,-1.04297 -2.5625,-1.90625c-1.89062,-1.72656 -3.92187,-4.36328 -5.0625,-7.96875c-0.11328,-0.44141 -0.51172,-0.75 -0.96875,-0.75c-0.45703,0 -0.85547,0.30859 -0.96875,0.75c-1.14062,3.60547 -3.17187,6.24219 -5.0625,7.96875c-0.94531,0.86328 -1.84766,1.5 -2.5625,1.90625c-0.58203,0.32813 -1.12891,0.48828 -1.21875,0.53125c-1.17187,0 -2.79687,-0.83203 -4.3125,-2.3125c-1.51562,-1.48047 -2.90625,-3.54687 -3.75,-5.65625c0,-0.01172 0,-0.01953 0,-0.03125c-0.29297,-0.67187 -0.28125,-2.60547 0.9375,-4.21875c1.21875,-1.61328 3.55859,-3.09375 8.03125,-3.09375c0.54688,-0.00781 0.98438,-0.45312 0.98438,-1c0,-0.54687 -0.4375,-0.99219 -0.98437,-1c-3.20703,0 -5.69141,-0.1875 -7.5625,-0.71875c-1.87109,-0.53125 -3.09375,-1.33984 -4.03125,-2.65625c-1.87891,-2.62891 -2.5,-7.69141 -2.5,-16.5c0,-1.25391 0.32813,-1.84375 0.78125,-2.21875c0.45313,-0.375 1.19922,-0.59375 2.21875,-0.59375z"></path></g></g></svg>