<svg width="1128" height="260" viewBox="0 0 1128 260" fill="none" xmlns="http://www.w3.org/2000/svg">
<g clip-path="url(#clip0_1_2)">
<path d="M213.25 136.542V132.778L234.25 115.458C221.125 99.6458 202.75 99.6458 202.75 99.6458V126C186.008 131.724 173.518 140.748 165.596 147.8C158.928 153.74 134.5 176.073 134.5 205.062C134.5 220.875 145 231.417 160.75 231.417C187 231.417 200.324 231.417 208 231.417C229 231.417 239.5 219.758 239.5 205.062C239.5 183.273 213.25 165.589 213.25 136.542Z" fill="#546E7A"/>
<path d="M213.245 136.542C212.457 136.542 211.654 136.362 210.903 135.988L200.403 130.717C197.81 129.415 196.76 126.248 198.056 123.644C199.358 121.04 202.503 119.986 205.102 121.288L215.602 126.559C218.196 127.861 219.245 131.028 217.949 133.632C217.025 135.477 215.171 136.542 213.245 136.542Z" fill="#90A4AE"/>
<path d="M123.947 67.2829C122.981 66.7084 114.487 61.3954 113.573 51.8605C112.938 45.2139 116.151 38.6834 123.134 32.4532C126.095 29.8073 129.565 25.8436 129.218 21.9801C128.898 18.3696 125.281 15.3916 123.911 14.5535L129.302 5.50874C130.268 6.08326 138.763 11.3963 139.676 20.9312C140.312 27.5777 137.099 34.1083 130.116 40.3384C127.15 42.9844 123.68 46.948 124.026 50.8063C124.346 54.4168 127.964 57.3948 129.334 58.2329L123.947 67.2829Z" fill="#827717"/>
<path d="M160.697 72.5538C159.731 71.9792 151.237 66.6662 150.323 57.1313C149.688 50.4848 152.901 43.9542 159.884 37.7241C162.845 35.0781 166.315 31.1145 165.968 27.2509C165.648 23.6404 162.031 20.6624 160.661 19.8243L166.052 10.7796C167.018 11.3541 175.513 16.6671 176.426 26.202C177.062 32.8486 173.849 39.3791 166.866 45.6093C163.905 48.2552 160.435 52.2189 160.781 56.0824C161.102 59.6929 164.719 62.6709 166.089 63.509L160.697 72.5538Z" fill="#827717"/>
<path d="M87.1975 72.5538C86.2315 71.9792 77.737 66.6662 76.8235 57.1313C76.1883 50.4848 79.4012 43.9542 86.3837 37.7241C89.3447 35.0781 92.815 31.1145 92.4685 27.2509C92.1483 23.6404 88.531 20.6624 87.1608 19.8243L92.5525 10.7796C93.5185 11.3541 102.013 16.6671 102.927 26.202C103.562 32.8486 100.349 39.3791 93.3663 45.6093C90.4053 48.2552 86.935 52.2189 87.2815 56.0824C87.6018 59.6929 91.219 62.6709 92.5893 63.509L87.1975 72.5538Z" fill="#827717"/>
<path d="M112.844 157.625C112.686 157.404 61 135.224 61 121.388V99.6458C61 99.6458 42.625 99.6458 29.5 115.458C29.5 115.458 40 124.023 47.875 130.612C50.395 132.72 50.5 135.883 50.5 135.883C50.5 167.308 8.5 175.219 8.5 206.638C8.5 220.606 18.5958 231.417 38.7873 231.417C38.7873 231.417 108.25 231.417 118.75 231.417C134.5 231.417 150.25 220.875 150.25 199.792C150.25 173.437 112.844 157.625 112.844 157.625Z" fill="#546E7A"/>
<path d="M129.25 110.188V78.5625C108.25 81.1979 97.75 91.7396 97.75 91.7396L118.75 115.458C118.75 131.223 94.012 148.559 79.9 162.806C60.3018 182.593 50.5 197.436 50.5 217.222C50.5 222.404 55.3983 241.958 79.9 241.958C88.7463 241.958 149.095 241.958 163.202 241.958C182.8 241.958 197.5 232.065 197.5 212.278C197.5 143.02 129.25 110.188 129.25 110.188Z" fill="#90A4AE"/>
<path d="M50.5053 136.542C48.5785 136.542 46.7253 135.477 45.8013 133.627C44.5045 131.023 45.5545 127.855 48.148 126.553L58.648 121.283C61.2415 119.981 64.3915 121.035 65.6935 123.639C66.9903 126.242 65.9403 129.41 63.3468 130.712L52.8468 135.983C52.096 136.362 51.2928 136.542 50.5053 136.542Z" fill="#90A4AE"/>
<path d="M118.755 120.729C116.828 120.729 114.975 119.664 114.051 117.814C112.754 115.211 113.804 112.043 116.398 110.741L126.898 105.47C129.491 104.168 132.641 105.222 133.943 107.826C135.24 110.43 134.19 113.598 131.597 114.9L121.097 120.17C120.346 120.55 119.543 120.729 118.755 120.729Z" fill="#B0BEC5"/>
<path d="M281.522 50.649H298.093C299.606 50.649 301.044 50.7247 302.406 50.876C303.768 51.0273 304.827 51.4813 305.584 52.238C306.492 53.2973 306.946 54.735 306.946 56.551C307.097 58.2157 307.173 59.956 307.173 61.772V81.975V163.468V198.199C307.173 200.015 307.173 202.134 307.173 204.555C307.324 206.825 307.022 208.565 306.265 209.776C305.508 210.987 304.146 211.819 302.179 212.273C301.271 212.576 300.212 212.651 299.001 212.5C297.942 212.349 296.882 212.273 295.823 212.273H284.927C283.262 212.273 281.749 212.197 280.387 212.046C279.025 211.895 277.89 211.441 276.982 210.684C276.074 209.927 275.544 208.792 275.393 207.279C275.393 205.614 275.393 203.95 275.393 202.285V182.082V96.957V66.085C275.393 64.1177 275.317 61.772 275.166 59.048C275.166 56.324 275.544 54.3567 276.301 53.146C276.604 52.5407 276.982 52.0867 277.436 51.784C278.041 51.4813 278.647 51.1787 279.252 50.876C279.555 50.876 279.933 50.876 280.387 50.876C280.841 50.7247 281.219 50.649 281.522 50.649ZM357.297 52.238C358.357 53.4487 358.886 55.2647 358.886 57.686C358.886 60.1073 358.886 62.453 358.886 64.723C358.886 66.6903 358.886 68.7333 358.886 70.852C358.886 72.9707 358.357 74.4083 357.297 75.165C356.389 75.9217 355.179 76.3757 353.665 76.527C352.303 76.6783 350.79 76.754 349.125 76.754H336.413C334.749 76.754 333.235 76.6783 331.873 76.527C330.663 76.3757 329.603 75.9217 328.695 75.165C328.09 74.711 327.636 73.8787 327.333 72.668C327.182 71.306 327.031 69.8683 326.879 68.355C326.879 66.6903 326.879 65.0257 326.879 63.361C327.031 61.6963 327.106 60.2587 327.106 59.048C327.106 57.8373 327.106 56.778 327.106 55.87C327.258 54.8107 327.56 53.9027 328.014 53.146C328.317 52.5407 328.695 52.0867 329.149 51.784C329.755 51.4813 330.36 51.1787 330.965 50.876C331.268 50.876 331.646 50.876 332.1 50.876C332.554 50.7247 332.933 50.649 333.235 50.649H349.806C351.32 50.649 352.757 50.7247 354.119 50.876C355.481 51.0273 356.541 51.4813 357.297 52.238ZM358.886 200.015C358.886 203.042 358.811 205.614 358.659 207.733C358.508 209.852 357.146 211.289 354.573 212.046C353.665 212.349 352.682 212.5 351.622 212.5C350.563 212.349 349.428 212.273 348.217 212.273H335.505C334.143 212.273 332.781 212.197 331.419 212.046C330.209 211.895 329.301 211.441 328.695 210.684C327.787 209.625 327.258 208.338 327.106 206.825C327.106 205.16 327.106 203.42 327.106 201.604V105.81C327.106 104.297 327.106 102.783 327.106 101.27C327.106 99.7567 327.409 98.546 328.014 97.638C328.922 96.5787 330.209 95.8977 331.873 95.595C332.176 95.4437 332.554 95.4437 333.008 95.595C333.614 95.595 334.068 95.5193 334.37 95.368H345.72C346.628 95.368 347.612 95.368 348.671 95.368C349.882 95.2167 350.866 95.2167 351.622 95.368H353.438C354.346 95.6707 355.179 95.8977 355.935 96.049C356.692 96.2003 357.297 96.6543 357.751 97.411C358.357 98.1677 358.659 99.227 358.659 100.589C358.811 101.951 358.886 103.389 358.886 104.902V200.015ZM444.196 92.417C453.276 92.1143 460.843 93.4007 466.896 96.276C472.949 99.1513 477.716 103.389 481.197 108.988C482.256 110.653 483.089 112.469 483.694 114.436C484.299 116.252 484.905 118.144 485.51 120.111C485.813 121.322 485.964 122.457 485.964 123.516C486.115 124.575 486.342 125.635 486.645 126.694C486.645 127.602 486.721 128.207 486.872 128.51C487.175 130.629 487.326 132.823 487.326 135.093C487.326 137.363 487.326 139.557 487.326 141.676V161.879V198.653C487.326 201.528 487.25 204.328 487.099 207.052C487.099 209.625 486.04 211.289 483.921 212.046C483.013 212.349 481.954 212.5 480.743 212.5C479.532 212.5 478.322 212.5 477.111 212.5H464.853C463.037 212.5 461.372 212.424 459.859 212.273C458.497 211.97 457.438 211.289 456.681 210.23C456.076 209.322 455.697 208.187 455.546 206.825C455.546 205.312 455.546 203.723 455.546 202.058V186.168V152.345C455.546 146.746 455.319 141.6 454.865 136.909C454.411 132.066 453.049 127.98 450.779 124.651C448.66 121.624 445.558 119.506 441.472 118.295C440.715 117.992 439.883 117.841 438.975 117.841C438.218 117.841 437.386 117.69 436.478 117.387C435.721 117.236 434.738 117.236 433.527 117.387C432.468 117.387 431.635 117.463 431.03 117.614C430.425 117.765 429.895 117.841 429.441 117.841C428.987 117.841 428.533 117.917 428.079 118.068C424.598 118.976 421.799 120.187 419.68 121.7C414.837 125.181 411.962 130.25 411.054 136.909C410.146 143.568 409.692 151.059 409.692 159.382V187.757V201.604C409.692 202.966 409.692 204.328 409.692 205.69C409.692 207.052 409.465 208.187 409.011 209.095C408.254 210.76 407.044 211.743 405.379 212.046C403.714 212.349 401.671 212.5 399.25 212.5H387.9C386.235 212.5 384.571 212.424 382.906 212.273C381.241 212.122 380.031 211.592 379.274 210.684C378.215 209.322 377.685 207.355 377.685 204.782C377.836 202.209 377.912 199.788 377.912 197.518V166.646V116.706V105.129C377.912 103.464 377.912 101.951 377.912 100.589C378.063 99.227 378.517 98.092 379.274 97.184C379.577 96.73 380.031 96.4273 380.636 96.276C381.393 95.9733 382.149 95.7463 382.906 95.595H384.041C384.798 95.4437 385.554 95.368 386.311 95.368C387.219 95.368 388.051 95.368 388.808 95.368H398.342C399.553 95.368 400.688 95.4437 401.747 95.595C402.958 95.595 404.017 95.7463 404.925 96.049C405.984 96.503 406.665 97.184 406.968 98.092C407.422 99 407.8 100.059 408.103 101.27C408.254 101.875 408.254 102.405 408.103 102.859C408.103 103.313 408.254 103.767 408.557 104.221C408.86 104.978 409.087 105.432 409.238 105.583C409.541 105.734 409.919 105.961 410.373 106.264C412.038 106.415 413.4 105.886 414.459 104.675C415.518 103.313 416.653 102.254 417.864 101.497C421.95 98.4703 426.49 96.049 431.484 94.233C432.846 93.779 434.208 93.4763 435.57 93.325C437.083 93.1737 438.672 92.9467 440.337 92.644C440.791 92.4927 441.472 92.4927 442.38 92.644C443.288 92.644 443.893 92.5683 444.196 92.417ZM514.287 50.649H530.858C532.523 50.649 534.036 50.7247 535.398 50.876C536.76 51.0273 537.82 51.4813 538.576 52.238C539.787 53.6 540.317 55.7943 540.165 58.821C540.165 61.8477 540.165 64.6473 540.165 67.22V105.583V119.43C540.165 120.489 540.09 121.624 539.938 122.835C539.787 124.046 539.863 125.181 540.165 126.24V128.283C540.468 129.04 540.695 129.872 540.846 130.78C540.998 131.537 541.452 132.066 542.208 132.369C542.662 132.672 543.268 132.747 544.024 132.596C544.781 132.293 545.311 131.991 545.613 131.688C547.127 130.629 548.413 129.418 549.472 128.056C550.683 126.694 551.894 125.408 553.104 124.197C554.315 122.986 555.601 121.776 556.963 120.565C558.325 119.203 559.536 117.765 560.595 116.252C561.049 115.949 561.579 115.495 562.184 114.89C562.941 114.133 563.698 113.377 564.454 112.62C565.211 111.712 565.968 110.88 566.724 110.123L571.945 104.902C572.248 104.297 572.626 103.843 573.08 103.54C573.686 103.086 574.215 102.556 574.669 101.951C575.88 100.438 577.166 99.1513 578.528 98.092C580.042 96.8813 581.858 96.049 583.976 95.595C584.733 95.4437 585.792 95.368 587.154 95.368C587.76 95.2167 588.365 95.2167 588.97 95.368C589.576 95.368 590.257 95.368 591.013 95.368H598.504C599.715 95.368 601.153 95.2923 602.817 95.141C604.633 94.9897 606.147 95.0653 607.357 95.368H609.854C610.611 95.6707 611.368 95.8977 612.124 96.049C612.881 96.049 613.411 96.3517 613.713 96.957C614.016 97.411 614.016 98.0163 613.713 98.773C613.562 99.5297 613.335 100.059 613.032 100.362C612.124 101.875 610.989 103.237 609.627 104.448C608.265 105.507 606.979 106.642 605.768 107.853C604.709 108.912 603.65 109.972 602.59 111.031C601.682 112.09 600.623 113.074 599.412 113.982C598.656 114.587 597.975 115.268 597.369 116.025C596.915 116.63 596.31 117.236 595.553 117.841C594.797 118.295 594.116 118.9 593.51 119.657C592.905 120.414 592.224 121.095 591.467 121.7L582.841 130.326C581.782 131.234 580.798 132.142 579.89 133.05C579.134 133.807 578.377 134.79 577.62 136.001C577.318 136.455 577.015 137.06 576.712 137.817C576.41 138.422 576.41 139.103 576.712 139.86C577.015 141.525 577.545 142.887 578.301 143.946C579.209 145.005 580.042 146.14 580.798 147.351C582.009 149.016 583.068 150.68 583.976 152.345C585.036 154.01 586.171 155.674 587.381 157.339L611.216 193.432C612.73 195.551 614.167 197.669 615.529 199.788C617.043 201.907 618.405 204.025 619.615 206.144C620.069 206.901 620.296 207.809 620.296 208.868C620.448 209.927 620.145 210.76 619.388 211.365C618.783 211.668 618.178 211.819 617.572 211.819C616.967 211.819 616.286 211.97 615.529 212.273C614.924 212.424 614.243 212.5 613.486 212.5C612.73 212.349 611.973 212.273 611.216 212.273H602.363C599.942 212.273 597.067 212.349 593.737 212.5C590.408 212.5 587.911 212.122 586.246 211.365C584.582 210.608 583.144 209.246 581.933 207.279C580.723 205.16 579.588 203.269 578.528 201.604C575.956 197.518 573.383 193.432 570.81 189.346C568.238 185.109 565.665 180.947 563.092 176.861C561.882 174.894 560.671 172.926 559.46 170.959C558.401 168.992 557.19 167.1 555.828 165.284C555.526 164.83 554.996 164.225 554.239 163.468C553.483 162.711 552.65 162.484 551.742 162.787C550.38 163.09 549.321 163.544 548.564 164.149C547.959 164.754 547.278 165.435 546.521 166.192C545.311 167.1 544.176 168.159 543.116 169.37C542.057 170.581 541.225 172.018 540.619 173.683C540.317 174.894 540.165 176.256 540.165 177.769C540.165 179.131 540.165 180.493 540.165 181.855V195.929C540.165 196.988 540.165 198.199 540.165 199.561C540.317 200.772 540.392 202.058 540.392 203.42C540.392 204.782 540.317 206.068 540.165 207.279C540.014 208.338 539.711 209.171 539.257 209.776C538.652 210.684 537.668 211.365 536.306 211.819C535.096 212.122 533.658 212.349 531.993 212.5C530.329 212.5 528.588 212.5 526.772 212.5C524.956 212.349 523.367 212.273 522.005 212.273C520.341 212.273 518.525 212.349 516.557 212.5C514.59 212.5 513.001 212.273 511.79 211.819C509.823 211.062 508.764 209.7 508.612 207.733C508.461 205.766 508.385 203.496 508.385 200.923V174.818V83.791V62.68C508.385 61.0153 508.31 59.275 508.158 57.459C508.158 55.643 508.461 54.2053 509.066 53.146C509.672 52.0867 510.731 51.33 512.244 50.876C512.547 50.876 512.85 50.876 513.152 50.876C513.606 50.7247 513.985 50.649 514.287 50.649ZM635.328 50.876H650.764C652.277 50.876 653.715 50.876 655.077 50.876C656.59 50.876 657.801 51.2543 658.709 52.011C659.768 52.6163 660.449 53.9027 660.752 55.87C660.752 56.6267 660.752 57.3833 660.752 58.14C660.903 58.7453 660.979 59.4263 660.979 60.183V68.355V94.46C660.979 95.5193 660.903 96.73 660.752 98.092C660.752 99.454 660.828 100.816 660.979 102.178C661.13 103.389 661.433 104.448 661.887 105.356C662.492 106.113 663.325 106.491 664.384 106.491C664.687 106.188 664.989 106.037 665.292 106.037C665.595 106.037 665.897 105.886 666.2 105.583C667.259 104.826 668.243 103.994 669.151 103.086C670.059 102.027 671.118 101.119 672.329 100.362C673.994 99.1513 675.734 98.092 677.55 97.184C679.366 96.276 681.333 95.368 683.452 94.46C684.057 94.1573 684.663 94.006 685.268 94.006C685.873 94.006 686.554 93.8547 687.311 93.552C688.824 93.098 690.413 92.7953 692.078 92.644C693.743 92.4927 695.559 92.417 697.526 92.417C698.283 92.417 698.964 92.417 699.569 92.417C700.326 92.417 701.082 92.4927 701.839 92.644H703.201C704.26 92.7953 705.244 92.9467 706.152 93.098C707.211 93.2493 708.271 93.4007 709.33 93.552C711.903 94.3087 714.248 95.141 716.367 96.049C718.637 96.8057 720.831 97.7893 722.95 99C726.279 101.119 728.928 103.843 730.895 107.172C733.014 110.35 734.754 113.906 736.116 117.841C736.419 119.052 736.646 120.338 736.797 121.7C737.1 122.911 737.402 124.121 737.705 125.332C738.008 126.694 738.159 128.132 738.159 129.645C738.159 131.158 738.31 132.672 738.613 134.185V136.682C738.916 137.893 738.991 139.255 738.84 140.768C738.689 142.13 738.613 143.416 738.613 144.627V160.744V196.156C738.613 198.729 738.689 201.453 738.84 204.328C738.991 207.203 738.462 209.398 737.251 210.911C736.494 211.819 735.284 212.349 733.619 212.5C731.954 212.5 730.29 212.5 728.625 212.5H717.275C714.854 212.5 712.811 212.424 711.146 212.273C709.481 211.97 708.271 210.987 707.514 209.322C707.06 208.414 706.833 207.355 706.833 206.144C706.833 204.782 706.833 203.496 706.833 202.285V189.346V153.026C706.833 146.67 706.53 140.844 705.925 135.547C705.32 130.099 703.428 125.862 700.25 122.835C698.131 120.716 695.559 119.203 692.532 118.295C691.927 118.144 691.397 118.068 690.943 118.068C690.64 118.068 690.186 117.992 689.581 117.841C688.976 117.69 688.143 117.538 687.084 117.387C686.176 117.236 685.419 117.311 684.814 117.614C683.906 117.765 682.922 117.841 681.863 117.841C680.955 117.841 680.047 117.992 679.139 118.295C675.658 119.203 672.632 120.565 670.059 122.381C667.335 124.5 665.292 127.375 663.93 131.007C662.719 134.488 661.887 138.498 661.433 143.038C660.979 147.427 660.752 152.118 660.752 157.112C660.903 162.106 660.979 166.949 660.979 171.64V199.107C660.979 201.074 660.979 203.193 660.979 205.463C660.979 207.582 660.601 209.246 659.844 210.457C659.39 211.062 658.785 211.516 658.028 211.819C657.271 211.97 656.515 212.197 655.758 212.5C654.85 212.803 653.791 212.878 652.58 212.727C651.521 212.576 650.461 212.5 649.402 212.5C648.04 212.5 646.451 212.5 644.635 212.5C642.819 212.651 641.003 212.727 639.187 212.727C637.371 212.727 635.706 212.651 634.193 212.5C632.68 212.197 631.545 211.743 630.788 211.138C629.88 210.381 629.35 209.246 629.199 207.733C629.199 206.068 629.199 204.404 629.199 202.739V182.536V97.184V66.312C629.199 64.3447 629.123 61.999 628.972 59.275C628.821 56.551 629.123 54.5837 629.88 53.373C630.788 52.3137 631.999 51.557 633.512 51.103C633.815 50.9517 634.117 50.9517 634.42 51.103C634.723 51.103 635.025 51.0273 635.328 50.876ZM867.725 152.799C868.027 154.01 868.027 155.372 867.725 156.885C867.422 158.398 866.892 159.382 866.136 159.836C865.379 160.441 864.244 160.895 862.731 161.198C861.369 161.349 859.78 161.501 857.964 161.652C856.299 161.652 854.559 161.652 852.743 161.652C851.078 161.501 849.565 161.425 848.203 161.425H792.815C791.755 161.425 790.696 161.425 789.637 161.425C788.729 161.425 787.896 161.576 787.14 161.879C785.929 162.484 785.172 163.09 784.87 163.695C784.567 163.998 784.264 164.603 783.962 165.511C783.659 166.268 783.583 167.024 783.735 167.781C784.037 168.689 784.189 169.597 784.189 170.505C784.34 171.262 784.567 172.094 784.87 173.002C786.08 176.634 787.518 179.661 789.183 182.082C790.999 184.352 793.42 186.395 796.447 188.211C797.657 188.968 798.868 189.497 800.079 189.8C801.441 189.951 802.803 190.254 804.165 190.708C805.375 191.011 807.04 191.238 809.159 191.389C811.277 191.54 813.093 191.465 814.607 191.162H816.65C818.163 190.859 819.525 190.557 820.736 190.254C822.098 189.8 823.384 189.346 824.595 188.892C826.108 188.135 827.773 187.152 829.589 185.941C831.556 184.73 832.994 183.52 833.902 182.309C834.658 181.25 835.415 180.266 836.172 179.358C837.08 178.299 838.139 177.542 839.35 177.088C840.863 176.331 842.755 176.029 845.025 176.18C847.446 176.18 849.64 176.18 851.608 176.18C852.516 176.18 853.424 176.18 854.332 176.18C855.391 176.029 856.299 176.104 857.056 176.407H859.326C860.839 176.71 861.898 177.088 862.504 177.542C863.109 177.845 863.412 178.526 863.412 179.585C863.563 180.644 863.487 181.552 863.185 182.309C862.428 184.428 861.596 186.319 860.688 187.984C859.78 189.649 858.72 191.313 857.51 192.978C854.18 197.972 850.397 201.982 846.16 205.009C841.922 208.036 836.626 210.608 830.27 212.727C828.605 213.332 826.94 213.711 825.276 213.862C823.611 214.013 821.871 214.316 820.055 214.77C819.449 214.921 818.768 214.921 818.012 214.77C817.406 214.77 816.801 214.846 816.196 214.997H813.699C812.942 215.3 812.034 215.375 810.975 215.224C810.067 215.224 809.234 215.148 808.478 214.997C807.267 214.846 806.208 214.846 805.3 214.997C804.392 215.148 803.408 215.073 802.349 214.77C801.592 214.467 800.76 214.316 799.852 214.316C798.944 214.316 798.111 214.165 797.355 213.862C795.69 213.559 794.025 213.181 792.361 212.727C790.696 212.424 789.183 211.895 787.821 211.138C786.156 210.533 784.567 210.003 783.054 209.549C781.692 208.944 780.405 208.263 779.195 207.506C774.352 204.479 770.039 200.999 766.256 197.064C762.472 192.978 759.37 188.287 756.949 182.99C756.192 181.325 755.587 179.661 755.133 177.996C754.679 176.18 754.073 174.364 753.317 172.548C753.165 171.943 753.09 171.413 753.09 170.959C753.09 170.354 753.014 169.748 752.863 169.143C752.257 167.327 751.879 165.36 751.728 163.241C751.576 161.122 751.425 159.004 751.274 156.885C751.274 156.128 751.198 155.296 751.047 154.388C751.047 153.48 751.122 152.648 751.274 151.891V149.167L751.955 143.719C752.56 141.146 753.09 138.649 753.544 136.228C753.998 133.807 754.679 131.537 755.587 129.418C762.094 113.679 773.141 102.556 788.729 96.049C790.847 95.141 792.966 94.5357 795.085 94.233C797.355 93.779 799.7 93.2493 802.122 92.644C803.332 92.4927 804.467 92.417 805.527 92.417C806.586 92.417 807.721 92.3413 808.932 92.19C816.65 92.0387 823.233 92.9467 828.681 94.914C834.28 96.73 839.274 99.1513 843.663 102.178C845.025 103.086 846.387 104.145 847.749 105.356C849.111 106.415 850.321 107.55 851.381 108.761C851.835 109.518 852.44 110.123 853.197 110.577C854.407 112.242 855.542 113.982 856.602 115.798C857.661 117.463 858.796 119.203 860.007 121.019C860.763 122.381 861.369 123.819 861.823 125.332C862.428 126.694 863.033 128.207 863.639 129.872C864.395 131.839 865.001 133.882 865.455 136.001C865.909 138.12 866.438 140.238 867.044 142.357C867.346 143.568 867.422 144.93 867.271 146.443C867.271 147.805 867.422 149.091 867.725 150.302V152.799ZM833.675 139.406C834.734 137.893 834.81 136.077 833.902 133.958C833.145 131.688 832.54 130.023 832.086 128.964C829.967 124.878 827.167 121.776 823.687 119.657C820.206 117.387 815.363 116.176 809.159 116.025C808.705 116.328 808.175 116.403 807.57 116.252C806.964 116.101 806.435 116.101 805.981 116.252C805.224 116.555 804.392 116.782 803.484 116.933C802.576 116.933 801.743 117.084 800.987 117.387C794.328 119.506 789.41 123.667 786.232 129.872C785.929 130.477 785.551 131.31 785.097 132.369C784.794 133.277 784.567 134.261 784.416 135.32C784.264 136.228 784.264 137.136 784.416 138.044C784.718 138.952 785.248 139.709 786.005 140.314C787.215 141.071 788.88 141.449 790.999 141.449C793.117 141.449 795.16 141.449 797.128 141.449H822.325C824.443 141.449 826.638 141.449 828.908 141.449C831.329 141.298 832.918 140.617 833.675 139.406ZM986.495 203.42C986.798 205.085 986.949 206.749 986.949 208.414C987.101 210.079 986.344 211.214 984.679 211.819C983.771 212.273 982.712 212.5 981.501 212.5C980.291 212.5 979.08 212.5 977.869 212.5H965.611C964.249 212.5 962.887 212.5 961.525 212.5C960.315 212.349 959.331 211.97 958.574 211.365C957.515 210.76 956.683 209.927 956.077 208.868C955.623 207.657 954.942 206.674 954.034 205.917C953.732 205.614 953.353 205.387 952.899 205.236C952.445 204.933 951.84 204.858 951.083 205.009C950.327 205.312 949.57 205.69 948.813 206.144C948.208 206.598 947.527 206.976 946.77 207.279C946.014 207.884 945.181 208.414 944.273 208.868C943.365 209.322 942.457 209.776 941.549 210.23C939.582 211.138 937.539 211.895 935.42 212.5C933.302 212.954 931.107 213.484 928.837 214.089C927.778 214.392 926.719 214.543 925.659 214.543C924.751 214.694 923.768 214.846 922.708 214.997C922.254 214.997 921.8 214.997 921.346 214.997C920.892 215.148 920.438 215.224 919.984 215.224H917.487C915.974 215.527 914.461 215.527 912.947 215.224H910.904C909.845 214.921 908.786 214.77 907.726 214.77C906.818 214.921 905.91 214.846 905.002 214.543C903.489 214.24 902.051 213.938 900.689 213.635C899.327 213.484 898.041 213.105 896.83 212.5C892.442 210.835 888.658 208.717 885.48 206.144C882.454 203.42 880.032 199.864 878.216 195.475C877.762 194.416 877.308 193.281 876.854 192.07C876.552 190.859 876.249 189.573 875.946 188.211C875.644 187.454 875.492 186.698 875.492 185.941C875.644 185.184 875.644 184.428 875.492 183.671C875.341 183.217 875.19 182.309 875.038 180.947C875.038 179.434 875.114 178.374 875.265 177.769C875.568 176.256 875.719 174.969 875.719 173.91C876.173 172.245 876.627 170.581 877.081 168.916C877.535 167.1 878.141 165.511 878.897 164.149C881.47 159.76 884.421 156.431 887.75 154.161C891.08 151.891 895.317 149.924 900.462 148.259C902.43 147.502 904.473 146.973 906.591 146.67C908.71 146.367 910.829 145.989 912.947 145.535C914.158 145.232 915.444 145.081 916.806 145.081C918.168 144.93 919.53 144.703 920.892 144.4C921.952 144.097 923.011 144.022 924.07 144.173C925.13 144.173 926.265 144.022 927.475 143.719C928.535 143.416 929.594 143.265 930.653 143.265C931.713 143.265 932.848 143.114 934.058 142.811C937.236 142.054 940.112 141.449 942.684 140.995C945.408 140.39 947.83 139.028 949.948 136.909C951.31 135.547 952.218 134.034 952.672 132.369C952.824 131.915 952.824 131.537 952.672 131.234C952.672 130.931 952.748 130.629 952.899 130.326C953.051 130.023 953.126 129.569 953.126 128.964C953.126 128.359 953.126 127.905 953.126 127.602C952.975 126.997 952.824 126.391 952.672 125.786C952.672 125.181 952.597 124.651 952.445 124.197C950.932 119.657 947.754 116.555 942.911 114.89C941.549 114.436 939.885 114.133 937.917 113.982C936.101 113.679 934.21 113.604 932.242 113.755C930.275 113.755 928.383 113.906 926.567 114.209C924.751 114.512 923.162 114.89 921.8 115.344C920.892 115.647 919.984 116.101 919.076 116.706C918.32 117.16 917.563 117.69 916.806 118.295C916.05 118.9 915.217 119.733 914.309 120.792C913.553 121.851 913.023 122.835 912.72 123.743C911.964 125.256 911.283 126.694 910.677 128.056C910.223 129.418 909.164 130.326 907.499 130.78C906.289 131.083 905.002 131.234 903.64 131.234C902.278 131.234 900.916 131.234 899.554 131.234H890.928C890.172 131.234 889.415 131.31 888.658 131.461C887.902 131.461 887.221 131.385 886.615 131.234H884.572C884.27 131.083 883.891 131.007 883.437 131.007C882.983 131.007 882.605 130.856 882.302 130.553C881.092 130.25 880.259 129.267 879.805 127.602C879.654 126.845 879.654 126.089 879.805 125.332C879.957 124.575 880.108 123.894 880.259 123.289C880.713 121.624 881.167 120.111 881.621 118.749C882.227 117.236 882.908 115.874 883.664 114.663C884.118 113.906 884.572 113.15 885.026 112.393C885.48 111.636 885.934 110.88 886.388 110.123C887.599 108.458 889.112 106.869 890.928 105.356C891.231 105.205 891.685 104.826 892.29 104.221C893.047 103.616 893.728 103.086 894.333 102.632C894.939 102.178 895.62 101.724 896.376 101.27C898.949 99.6053 901.673 98.319 904.548 97.411C907.424 96.3517 910.375 95.368 913.401 94.46C915.217 94.006 917.109 93.7033 919.076 93.552C921.044 93.4007 923.011 93.098 924.978 92.644C925.584 92.4927 926.492 92.4927 927.702 92.644C929.064 92.7953 929.897 92.7197 930.199 92.417C936.404 92.2657 942.306 92.4927 947.905 93.098C953.656 93.7033 958.801 94.8383 963.341 96.503C968.033 98.1677 972.043 100.438 975.372 103.313C978.702 106.037 981.274 109.593 983.09 113.982C984.15 116.555 984.755 119.506 984.906 122.835C985.058 126.164 985.133 129.569 985.133 133.05V183.671C985.133 186.546 985.133 189.497 985.133 192.524C985.133 195.399 985.436 198.048 986.041 200.469C986.193 200.923 986.268 201.453 986.268 202.058C986.268 202.512 986.344 202.966 986.495 203.42ZM953.126 168.462C953.278 167.705 953.353 166.873 953.353 165.965C953.353 164.906 953.278 163.998 953.126 163.241C952.824 162.333 952.672 161.501 952.672 160.744C952.672 159.987 952.37 159.382 951.764 158.928C951.008 158.323 949.873 158.02 948.359 158.02C947.754 158.171 947.224 158.323 946.77 158.474C946.316 158.474 945.787 158.55 945.181 158.701C944.122 159.004 942.987 159.231 941.776 159.382C940.566 159.533 939.355 159.76 938.144 160.063C937.69 160.214 937.009 160.29 936.101 160.29C934.134 160.744 932.167 161.047 930.199 161.198C928.232 161.349 926.34 161.728 924.524 162.333C923.314 162.636 922.179 162.938 921.119 163.241C920.06 163.392 919.001 163.695 917.941 164.149C914.763 165.511 912.039 167.554 909.769 170.278C907.651 173.002 906.894 176.785 907.499 181.628C907.802 184.201 908.634 186.319 909.996 187.984C911.056 189.649 912.645 191.011 914.763 192.07C916.882 192.978 919.152 193.659 921.573 194.113C924.146 194.567 926.794 194.718 929.518 194.567C932.394 194.264 935.042 193.735 937.463 192.978C941.398 191.767 944.5 189.876 946.77 187.303C949.04 184.579 950.781 181.25 951.991 177.315C952.294 176.256 952.445 175.196 952.445 174.137C952.597 172.926 952.824 171.716 953.126 170.505V168.462ZM1122.75 152.572C1122.9 153.48 1122.97 154.842 1122.97 156.658C1122.97 158.474 1122.82 159.76 1122.52 160.517V163.468C1122.06 165.133 1121.76 166.722 1121.61 168.235C1121.61 169.748 1121.38 171.262 1120.93 172.775C1120.63 174.137 1120.32 175.575 1120.02 177.088C1119.72 178.45 1119.26 179.812 1118.66 181.174C1117.6 183.747 1116.54 186.168 1115.48 188.438C1114.42 190.557 1113.21 192.675 1111.85 194.794C1110.94 196.156 1109.96 197.442 1108.9 198.653C1107.99 199.712 1106.93 200.847 1105.72 202.058L1104.13 203.647C1103.37 204.404 1102.54 205.085 1101.63 205.69C1100.88 206.295 1100.12 206.901 1099.36 207.506C1098.15 208.414 1096.79 209.246 1095.28 210.003C1093.92 210.608 1092.48 211.289 1090.97 212.046C1089.45 212.803 1087.86 213.332 1086.2 213.635C1084.68 213.938 1083.1 214.24 1081.43 214.543C1080.52 214.846 1079.54 214.997 1078.48 214.997C1077.57 214.997 1076.59 215.148 1075.53 215.451H1073.49C1072.28 215.754 1071.14 215.754 1070.08 215.451H1067.81C1066.9 215.148 1065.92 214.997 1064.86 214.997C1063.95 215.148 1063.04 215.073 1062.14 214.77C1059.71 214.013 1057.37 213.332 1055.1 212.727C1052.98 212.122 1051.01 211.214 1049.2 210.003C1048.14 209.398 1047.15 208.792 1046.25 208.187C1045.34 207.43 1044.35 206.674 1043.3 205.917C1042.69 205.463 1041.78 204.782 1040.57 203.874C1039.36 202.966 1038.3 202.89 1037.39 203.647C1036.64 204.101 1036.26 204.706 1036.26 205.463C1036.26 206.068 1036.11 206.825 1035.8 207.733C1035.5 209.246 1035.35 210.987 1035.35 212.954C1035.5 214.921 1035.58 216.737 1035.58 218.402V241.556C1035.58 243.523 1035.5 245.415 1035.35 247.231C1035.35 249.198 1034.97 250.787 1034.22 251.998C1033.76 252.603 1032.93 253.057 1031.72 253.36C1030.51 253.663 1029.15 253.814 1027.63 253.814C1026.12 253.965 1024.61 253.965 1023.09 253.814C1021.58 253.814 1020.29 253.814 1019.23 253.814H1013.1C1012.65 253.814 1012.12 253.814 1011.52 253.814C1010.91 253.814 1010.38 253.738 1009.93 253.587H1008.11C1005.54 252.83 1004.18 251.317 1004.02 249.047C1003.87 246.928 1003.8 244.356 1003.8 241.329V108.08C1003.8 106.415 1003.72 104.675 1003.57 102.859C1003.57 100.892 1003.95 99.3783 1004.71 98.319C1005.31 97.2597 1006.14 96.5787 1007.2 96.276C1007.96 95.9733 1008.87 95.822 1009.93 95.822C1011.14 95.822 1012.27 95.822 1013.33 95.822H1024.23C1025.74 95.822 1027.18 95.822 1028.54 95.822C1029.9 95.822 1031.04 96.2003 1031.95 96.957C1033 97.7137 1033.53 98.6973 1033.53 99.908C1033.69 100.967 1034.06 102.102 1034.67 103.313C1034.82 103.767 1034.97 104.145 1035.12 104.448C1035.43 104.599 1035.73 104.826 1036.03 105.129C1037.7 105.28 1039.06 104.826 1040.12 103.767C1041.18 102.708 1042.24 101.8 1043.3 101.043C1045.26 99.681 1047.31 98.4703 1049.42 97.411C1051.54 96.2003 1053.89 95.2167 1056.46 94.46C1057.67 94.006 1058.96 93.7033 1060.32 93.552C1061.83 93.4007 1063.27 93.1737 1064.63 92.871C1065.24 92.7197 1065.84 92.7197 1066.45 92.871C1067.21 93.0223 1067.81 92.9467 1068.27 92.644C1076.89 92.3413 1084.16 93.552 1090.06 96.276C1096.11 98.8487 1101.26 102.254 1105.49 106.491C1106.25 107.248 1106.93 108.004 1107.54 108.761C1108.14 109.366 1108.75 110.047 1109.35 110.804C1110.41 112.166 1111.32 113.528 1112.08 114.89C1112.98 116.252 1113.82 117.614 1114.57 118.976C1114.88 119.279 1115.03 119.657 1115.03 120.111C1115.18 120.565 1115.41 121.095 1115.71 121.7C1116.62 123.213 1117.45 125.029 1118.21 127.148C1118.51 128.056 1118.81 129.04 1119.11 130.099C1119.42 131.007 1119.72 131.991 1120.02 133.05C1120.63 134.866 1121 136.758 1121.16 138.725C1121.46 140.692 1121.84 142.735 1122.29 144.854C1122.29 145.611 1122.29 146.443 1122.29 147.351C1122.44 148.259 1122.59 149.167 1122.75 150.075V152.572ZM1090.74 157.793C1090.89 157.036 1090.97 156.053 1090.97 154.842C1090.97 153.48 1090.89 152.421 1090.74 151.664V149.621C1090.44 148.713 1090.28 147.729 1090.28 146.67C1090.28 145.611 1090.13 144.551 1089.83 143.492C1089.53 141.979 1089.22 140.541 1088.92 139.179C1088.62 137.666 1088.17 136.304 1087.56 135.093C1085.74 130.25 1083.4 126.391 1080.52 123.516C1077.65 120.641 1073.56 118.522 1068.27 117.16C1067.05 116.857 1065.69 116.706 1064.18 116.706C1062.82 116.706 1061.46 116.706 1060.09 116.706C1059.49 116.857 1058.96 116.933 1058.5 116.933C1058.05 116.933 1057.52 117.009 1056.92 117.16C1055.86 117.463 1054.8 117.765 1053.74 118.068C1052.83 118.219 1051.92 118.522 1051.01 118.976C1047.08 120.641 1043.98 123.213 1041.71 126.694C1039.59 130.175 1037.85 134.034 1036.49 138.271C1036.18 139.482 1035.96 140.768 1035.8 142.13C1035.65 143.341 1035.43 144.551 1035.12 145.762C1034.97 146.367 1034.9 147.351 1034.9 148.713C1034.59 149.318 1034.52 150.075 1034.67 150.983C1034.82 151.74 1034.82 152.496 1034.67 153.253C1034.37 154.161 1034.37 154.993 1034.67 155.75V158.474C1034.67 159.231 1034.67 159.912 1034.67 160.517C1034.67 161.122 1034.82 161.728 1035.12 162.333C1035.12 163.392 1035.2 164.225 1035.35 164.83C1035.5 165.738 1035.65 166.646 1035.8 167.554C1035.96 168.462 1036.18 169.37 1036.49 170.278C1037.85 174.667 1039.44 178.299 1041.25 181.174C1043.22 183.898 1045.94 186.319 1049.42 188.438C1051.54 189.649 1054.04 190.632 1056.92 191.389C1057.52 191.54 1058.05 191.616 1058.5 191.616C1058.96 191.465 1059.49 191.465 1060.09 191.616C1060.7 191.767 1061.61 191.919 1062.82 192.07C1064.03 192.07 1065.01 191.994 1065.77 191.843C1066.98 191.54 1068.19 191.313 1069.4 191.162C1070.76 190.859 1072.05 190.481 1073.26 190.027C1076.89 188.514 1079.84 186.395 1082.11 183.671C1084.38 180.947 1086.27 177.769 1087.79 174.137C1088.54 172.321 1089.07 170.429 1089.38 168.462C1089.68 166.495 1090.06 164.452 1090.51 162.333C1090.51 161.576 1090.51 160.82 1090.51 160.063C1090.66 159.306 1090.74 158.55 1090.74 157.793Z" fill="#1E1E1E"/>
</g>
<defs>
<clipPath id="clip0_1_2">
<rect width="1128" height="260" fill="white"/>
</clipPath>
</defs>
</svg>
