<svg width="1200" height="260" viewBox="0 0 1200 260" fill="none" xmlns="http://www.w3.org/2000/svg">
<g clip-path="url(#clip0_1_2)">
<rect width="1200" height="260" fill="#0D1116"/>
<path d="M249.25 136.542V132.778L270.25 115.458C257.125 99.6458 238.75 99.6458 238.75 99.6458V126C222.008 131.724 209.518 140.748 201.596 147.8C194.928 153.74 170.5 176.073 170.5 205.062C170.5 220.875 181 231.417 196.75 231.417C223 231.417 236.324 231.417 244 231.417C265 231.417 275.5 219.758 275.5 205.062C275.5 183.273 249.25 165.589 249.25 136.542Z" fill="#546E7A"/>
<path d="M249.245 136.542C248.457 136.542 247.654 136.362 246.903 135.988L236.403 130.717C233.81 129.415 232.76 126.248 234.056 123.644C235.358 121.04 238.503 119.986 241.102 121.288L251.602 126.559C254.196 127.861 255.245 131.028 253.949 133.632C253.025 135.477 251.171 136.542 249.245 136.542Z" fill="#90A4AE"/>
<path d="M159.947 67.2829C158.981 66.7084 150.487 61.3954 149.573 51.8605C148.938 45.2139 152.151 38.6834 159.134 32.4532C162.095 29.8073 165.565 25.8436 165.218 21.9801C164.898 18.3696 161.281 15.3916 159.911 14.5535L165.302 5.50874C166.268 6.08326 174.763 11.3963 175.676 20.9312C176.312 27.5777 173.099 34.1083 166.116 40.3384C163.15 42.9844 159.68 46.948 160.026 50.8063C160.346 54.4168 163.964 57.3948 165.334 58.2329L159.947 67.2829Z" fill="#827717"/>
<path d="M196.697 72.5538C195.731 71.9792 187.237 66.6662 186.323 57.1313C185.688 50.4848 188.901 43.9542 195.884 37.7241C198.845 35.0781 202.315 31.1145 201.968 27.2509C201.648 23.6404 198.031 20.6624 196.661 19.8243L202.052 10.7796C203.018 11.3541 211.513 16.6671 212.426 26.202C213.062 32.8486 209.849 39.3791 202.866 45.6093C199.905 48.2552 196.435 52.2189 196.781 56.0824C197.102 59.6929 200.719 62.6709 202.089 63.509L196.697 72.5538Z" fill="#827717"/>
<path d="M123.198 72.5538C122.232 71.9792 113.737 66.6662 112.824 57.1313C112.188 50.4848 115.401 43.9542 122.384 37.7241C125.345 35.0781 128.815 31.1145 128.469 27.2509C128.148 23.6404 124.531 20.6624 123.161 19.8243L128.553 10.7796C129.519 11.3541 138.013 16.6671 138.927 26.202C139.562 32.8486 136.349 39.3791 129.366 45.6093C126.405 48.2552 122.935 52.2189 123.282 56.0824C123.602 59.6929 127.219 62.6709 128.589 63.509L123.198 72.5538Z" fill="#827717"/>
<path d="M148.844 157.625C148.686 157.404 97 135.224 97 121.388V99.6458C97 99.6458 78.625 99.6458 65.5 115.458C65.5 115.458 76 124.023 83.875 130.612C86.395 132.72 86.5 135.883 86.5 135.883C86.5 167.308 44.5 175.219 44.5 206.638C44.5 220.606 54.5958 231.417 74.7873 231.417C74.7873 231.417 144.25 231.417 154.75 231.417C170.5 231.417 186.25 220.875 186.25 199.792C186.25 173.437 148.844 157.625 148.844 157.625Z" fill="#546E7A"/>
<path d="M165.25 110.188V78.5625C144.25 81.1979 133.75 91.7396 133.75 91.7396L154.75 115.458C154.75 131.223 130.012 148.559 115.9 162.806C96.3018 182.593 86.5 197.436 86.5 217.222C86.5 222.404 91.3983 241.958 115.9 241.958C124.746 241.958 185.095 241.958 199.202 241.958C218.8 241.958 233.5 232.065 233.5 212.278C233.5 143.02 165.25 110.188 165.25 110.188Z" fill="#90A4AE"/>
<path d="M86.5053 136.542C84.5785 136.542 82.7253 135.477 81.8013 133.627C80.5045 131.023 81.5545 127.855 84.148 126.553L94.648 121.283C97.2415 119.981 100.392 121.035 101.694 123.639C102.99 126.242 101.94 129.41 99.3468 130.712L88.8468 135.983C88.096 136.362 87.2928 136.542 86.5053 136.542Z" fill="#90A4AE"/>
<path d="M154.755 120.729C152.828 120.729 150.975 119.664 150.051 117.814C148.754 115.211 149.804 112.043 152.398 110.741L162.898 105.47C165.491 104.168 168.641 105.222 169.943 107.826C171.24 110.43 170.19 113.598 167.597 114.9L157.097 120.17C156.346 120.55 155.543 120.729 154.755 120.729Z" fill="#B0BEC5"/>
<path d="M317.522 50.649H334.093C335.606 50.649 337.044 50.7247 338.406 50.876C339.768 51.0273 340.827 51.4813 341.584 52.238C342.492 53.2973 342.946 54.735 342.946 56.551C343.097 58.2157 343.173 59.956 343.173 61.772V81.975V163.468V198.199C343.173 200.015 343.173 202.134 343.173 204.555C343.324 206.825 343.022 208.565 342.265 209.776C341.508 210.987 340.146 211.819 338.179 212.273C337.271 212.576 336.212 212.651 335.001 212.5C333.942 212.349 332.882 212.273 331.823 212.273H320.927C319.262 212.273 317.749 212.197 316.387 212.046C315.025 211.895 313.89 211.441 312.982 210.684C312.074 209.927 311.544 208.792 311.393 207.279C311.393 205.614 311.393 203.95 311.393 202.285V182.082V96.957V66.085C311.393 64.1177 311.317 61.772 311.166 59.048C311.166 56.324 311.544 54.3567 312.301 53.146C312.604 52.5407 312.982 52.0867 313.436 51.784C314.041 51.4813 314.647 51.1787 315.252 50.876C315.555 50.876 315.933 50.876 316.387 50.876C316.841 50.7247 317.219 50.649 317.522 50.649ZM393.297 52.238C394.357 53.4487 394.886 55.2647 394.886 57.686C394.886 60.1073 394.886 62.453 394.886 64.723C394.886 66.6903 394.886 68.7333 394.886 70.852C394.886 72.9707 394.357 74.4083 393.297 75.165C392.389 75.9217 391.179 76.3757 389.665 76.527C388.303 76.6783 386.79 76.754 385.125 76.754H372.413C370.749 76.754 369.235 76.6783 367.873 76.527C366.663 76.3757 365.603 75.9217 364.695 75.165C364.09 74.711 363.636 73.8787 363.333 72.668C363.182 71.306 363.031 69.8683 362.879 68.355C362.879 66.6903 362.879 65.0257 362.879 63.361C363.031 61.6963 363.106 60.2587 363.106 59.048C363.106 57.8373 363.106 56.778 363.106 55.87C363.258 54.8107 363.56 53.9027 364.014 53.146C364.317 52.5407 364.695 52.0867 365.149 51.784C365.755 51.4813 366.36 51.1787 366.965 50.876C367.268 50.876 367.646 50.876 368.1 50.876C368.554 50.7247 368.933 50.649 369.235 50.649H385.806C387.32 50.649 388.757 50.7247 390.119 50.876C391.481 51.0273 392.541 51.4813 393.297 52.238ZM394.886 200.015C394.886 203.042 394.811 205.614 394.659 207.733C394.508 209.852 393.146 211.289 390.573 212.046C389.665 212.349 388.682 212.5 387.622 212.5C386.563 212.349 385.428 212.273 384.217 212.273H371.505C370.143 212.273 368.781 212.197 367.419 212.046C366.209 211.895 365.301 211.441 364.695 210.684C363.787 209.625 363.258 208.338 363.106 206.825C363.106 205.16 363.106 203.42 363.106 201.604V105.81C363.106 104.297 363.106 102.783 363.106 101.27C363.106 99.7567 363.409 98.546 364.014 97.638C364.922 96.5787 366.209 95.8977 367.873 95.595C368.176 95.4437 368.554 95.4437 369.008 95.595C369.614 95.595 370.068 95.5193 370.37 95.368H381.72C382.628 95.368 383.612 95.368 384.671 95.368C385.882 95.2167 386.866 95.2167 387.622 95.368H389.438C390.346 95.6707 391.179 95.8977 391.935 96.049C392.692 96.2003 393.297 96.6543 393.751 97.411C394.357 98.1677 394.659 99.227 394.659 100.589C394.811 101.951 394.886 103.389 394.886 104.902V200.015ZM480.196 92.417C489.276 92.1143 496.843 93.4007 502.896 96.276C508.949 99.1513 513.716 103.389 517.197 108.988C518.256 110.653 519.089 112.469 519.694 114.436C520.299 116.252 520.905 118.144 521.51 120.111C521.813 121.322 521.964 122.457 521.964 123.516C522.115 124.575 522.342 125.635 522.645 126.694C522.645 127.602 522.721 128.207 522.872 128.51C523.175 130.629 523.326 132.823 523.326 135.093C523.326 137.363 523.326 139.557 523.326 141.676V161.879V198.653C523.326 201.528 523.25 204.328 523.099 207.052C523.099 209.625 522.04 211.289 519.921 212.046C519.013 212.349 517.954 212.5 516.743 212.5C515.532 212.5 514.322 212.5 513.111 212.5H500.853C499.037 212.5 497.372 212.424 495.859 212.273C494.497 211.97 493.438 211.289 492.681 210.23C492.076 209.322 491.697 208.187 491.546 206.825C491.546 205.312 491.546 203.723 491.546 202.058V186.168V152.345C491.546 146.746 491.319 141.6 490.865 136.909C490.411 132.066 489.049 127.98 486.779 124.651C484.66 121.624 481.558 119.506 477.472 118.295C476.715 117.992 475.883 117.841 474.975 117.841C474.218 117.841 473.386 117.69 472.478 117.387C471.721 117.236 470.738 117.236 469.527 117.387C468.468 117.387 467.635 117.463 467.03 117.614C466.425 117.765 465.895 117.841 465.441 117.841C464.987 117.841 464.533 117.917 464.079 118.068C460.598 118.976 457.799 120.187 455.68 121.7C450.837 125.181 447.962 130.25 447.054 136.909C446.146 143.568 445.692 151.059 445.692 159.382V187.757V201.604C445.692 202.966 445.692 204.328 445.692 205.69C445.692 207.052 445.465 208.187 445.011 209.095C444.254 210.76 443.044 211.743 441.379 212.046C439.714 212.349 437.671 212.5 435.25 212.5H423.9C422.235 212.5 420.571 212.424 418.906 212.273C417.241 212.122 416.031 211.592 415.274 210.684C414.215 209.322 413.685 207.355 413.685 204.782C413.836 202.209 413.912 199.788 413.912 197.518V166.646V116.706V105.129C413.912 103.464 413.912 101.951 413.912 100.589C414.063 99.227 414.517 98.092 415.274 97.184C415.577 96.73 416.031 96.4273 416.636 96.276C417.393 95.9733 418.149 95.7463 418.906 95.595H420.041C420.798 95.4437 421.554 95.368 422.311 95.368C423.219 95.368 424.051 95.368 424.808 95.368H434.342C435.553 95.368 436.688 95.4437 437.747 95.595C438.958 95.595 440.017 95.7463 440.925 96.049C441.984 96.503 442.665 97.184 442.968 98.092C443.422 99 443.8 100.059 444.103 101.27C444.254 101.875 444.254 102.405 444.103 102.859C444.103 103.313 444.254 103.767 444.557 104.221C444.86 104.978 445.087 105.432 445.238 105.583C445.541 105.734 445.919 105.961 446.373 106.264C448.038 106.415 449.4 105.886 450.459 104.675C451.518 103.313 452.653 102.254 453.864 101.497C457.95 98.4703 462.49 96.049 467.484 94.233C468.846 93.779 470.208 93.4763 471.57 93.325C473.083 93.1737 474.672 92.9467 476.337 92.644C476.791 92.4927 477.472 92.4927 478.38 92.644C479.288 92.644 479.893 92.5683 480.196 92.417ZM550.287 50.649H566.858C568.523 50.649 570.036 50.7247 571.398 50.876C572.76 51.0273 573.82 51.4813 574.576 52.238C575.787 53.6 576.317 55.7943 576.165 58.821C576.165 61.8477 576.165 64.6473 576.165 67.22V105.583V119.43C576.165 120.489 576.09 121.624 575.938 122.835C575.787 124.046 575.863 125.181 576.165 126.24V128.283C576.468 129.04 576.695 129.872 576.846 130.78C576.998 131.537 577.452 132.066 578.208 132.369C578.662 132.672 579.268 132.747 580.024 132.596C580.781 132.293 581.311 131.991 581.613 131.688C583.127 130.629 584.413 129.418 585.472 128.056C586.683 126.694 587.894 125.408 589.104 124.197C590.315 122.986 591.601 121.776 592.963 120.565C594.325 119.203 595.536 117.765 596.595 116.252C597.049 115.949 597.579 115.495 598.184 114.89C598.941 114.133 599.698 113.377 600.454 112.62C601.211 111.712 601.968 110.88 602.724 110.123L607.945 104.902C608.248 104.297 608.626 103.843 609.08 103.54C609.686 103.086 610.215 102.556 610.669 101.951C611.88 100.438 613.166 99.1513 614.528 98.092C616.042 96.8813 617.858 96.049 619.976 95.595C620.733 95.4437 621.792 95.368 623.154 95.368C623.76 95.2167 624.365 95.2167 624.97 95.368C625.576 95.368 626.257 95.368 627.013 95.368H634.504C635.715 95.368 637.153 95.2923 638.817 95.141C640.633 94.9897 642.147 95.0653 643.357 95.368H645.854C646.611 95.6707 647.368 95.8977 648.124 96.049C648.881 96.049 649.411 96.3517 649.713 96.957C650.016 97.411 650.016 98.0163 649.713 98.773C649.562 99.5297 649.335 100.059 649.032 100.362C648.124 101.875 646.989 103.237 645.627 104.448C644.265 105.507 642.979 106.642 641.768 107.853C640.709 108.912 639.65 109.972 638.59 111.031C637.682 112.09 636.623 113.074 635.412 113.982C634.656 114.587 633.975 115.268 633.369 116.025C632.915 116.63 632.31 117.236 631.553 117.841C630.797 118.295 630.116 118.9 629.51 119.657C628.905 120.414 628.224 121.095 627.467 121.7L618.841 130.326C617.782 131.234 616.798 132.142 615.89 133.05C615.134 133.807 614.377 134.79 613.62 136.001C613.318 136.455 613.015 137.06 612.712 137.817C612.41 138.422 612.41 139.103 612.712 139.86C613.015 141.525 613.545 142.887 614.301 143.946C615.209 145.005 616.042 146.14 616.798 147.351C618.009 149.016 619.068 150.68 619.976 152.345C621.036 154.01 622.171 155.674 623.381 157.339L647.216 193.432C648.73 195.551 650.167 197.669 651.529 199.788C653.043 201.907 654.405 204.025 655.615 206.144C656.069 206.901 656.296 207.809 656.296 208.868C656.448 209.927 656.145 210.76 655.388 211.365C654.783 211.668 654.178 211.819 653.572 211.819C652.967 211.819 652.286 211.97 651.529 212.273C650.924 212.424 650.243 212.5 649.486 212.5C648.73 212.349 647.973 212.273 647.216 212.273H638.363C635.942 212.273 633.067 212.349 629.737 212.5C626.408 212.5 623.911 212.122 622.246 211.365C620.582 210.608 619.144 209.246 617.933 207.279C616.723 205.16 615.588 203.269 614.528 201.604C611.956 197.518 609.383 193.432 606.81 189.346C604.238 185.109 601.665 180.947 599.092 176.861C597.882 174.894 596.671 172.926 595.46 170.959C594.401 168.992 593.19 167.1 591.828 165.284C591.526 164.83 590.996 164.225 590.239 163.468C589.483 162.711 588.65 162.484 587.742 162.787C586.38 163.09 585.321 163.544 584.564 164.149C583.959 164.754 583.278 165.435 582.521 166.192C581.311 167.1 580.176 168.159 579.116 169.37C578.057 170.581 577.225 172.018 576.619 173.683C576.317 174.894 576.165 176.256 576.165 177.769C576.165 179.131 576.165 180.493 576.165 181.855V195.929C576.165 196.988 576.165 198.199 576.165 199.561C576.317 200.772 576.392 202.058 576.392 203.42C576.392 204.782 576.317 206.068 576.165 207.279C576.014 208.338 575.711 209.171 575.257 209.776C574.652 210.684 573.668 211.365 572.306 211.819C571.096 212.122 569.658 212.349 567.993 212.5C566.329 212.5 564.588 212.5 562.772 212.5C560.956 212.349 559.367 212.273 558.005 212.273C556.341 212.273 554.525 212.349 552.557 212.5C550.59 212.5 549.001 212.273 547.79 211.819C545.823 211.062 544.764 209.7 544.612 207.733C544.461 205.766 544.385 203.496 544.385 200.923V174.818V83.791V62.68C544.385 61.0153 544.31 59.275 544.158 57.459C544.158 55.643 544.461 54.2053 545.066 53.146C545.672 52.0867 546.731 51.33 548.244 50.876C548.547 50.876 548.85 50.876 549.152 50.876C549.606 50.7247 549.985 50.649 550.287 50.649ZM671.328 50.876H686.764C688.277 50.876 689.715 50.876 691.077 50.876C692.59 50.876 693.801 51.2543 694.709 52.011C695.768 52.6163 696.449 53.9027 696.752 55.87C696.752 56.6267 696.752 57.3833 696.752 58.14C696.903 58.7453 696.979 59.4263 696.979 60.183V68.355V94.46C696.979 95.5193 696.903 96.73 696.752 98.092C696.752 99.454 696.828 100.816 696.979 102.178C697.13 103.389 697.433 104.448 697.887 105.356C698.492 106.113 699.325 106.491 700.384 106.491C700.687 106.188 700.989 106.037 701.292 106.037C701.595 106.037 701.897 105.886 702.2 105.583C703.259 104.826 704.243 103.994 705.151 103.086C706.059 102.027 707.118 101.119 708.329 100.362C709.994 99.1513 711.734 98.092 713.55 97.184C715.366 96.276 717.333 95.368 719.452 94.46C720.057 94.1573 720.663 94.006 721.268 94.006C721.873 94.006 722.554 93.8547 723.311 93.552C724.824 93.098 726.413 92.7953 728.078 92.644C729.743 92.4927 731.559 92.417 733.526 92.417C734.283 92.417 734.964 92.417 735.569 92.417C736.326 92.417 737.082 92.4927 737.839 92.644H739.201C740.26 92.7953 741.244 92.9467 742.152 93.098C743.211 93.2493 744.271 93.4007 745.33 93.552C747.903 94.3087 750.248 95.141 752.367 96.049C754.637 96.8057 756.831 97.7893 758.95 99C762.279 101.119 764.928 103.843 766.895 107.172C769.014 110.35 770.754 113.906 772.116 117.841C772.419 119.052 772.646 120.338 772.797 121.7C773.1 122.911 773.402 124.121 773.705 125.332C774.008 126.694 774.159 128.132 774.159 129.645C774.159 131.158 774.31 132.672 774.613 134.185V136.682C774.916 137.893 774.991 139.255 774.84 140.768C774.689 142.13 774.613 143.416 774.613 144.627V160.744V196.156C774.613 198.729 774.689 201.453 774.84 204.328C774.991 207.203 774.462 209.398 773.251 210.911C772.494 211.819 771.284 212.349 769.619 212.5C767.954 212.5 766.29 212.5 764.625 212.5H753.275C750.854 212.5 748.811 212.424 747.146 212.273C745.481 211.97 744.271 210.987 743.514 209.322C743.06 208.414 742.833 207.355 742.833 206.144C742.833 204.782 742.833 203.496 742.833 202.285V189.346V153.026C742.833 146.67 742.53 140.844 741.925 135.547C741.32 130.099 739.428 125.862 736.25 122.835C734.131 120.716 731.559 119.203 728.532 118.295C727.927 118.144 727.397 118.068 726.943 118.068C726.64 118.068 726.186 117.992 725.581 117.841C724.976 117.69 724.143 117.538 723.084 117.387C722.176 117.236 721.419 117.311 720.814 117.614C719.906 117.765 718.922 117.841 717.863 117.841C716.955 117.841 716.047 117.992 715.139 118.295C711.658 119.203 708.632 120.565 706.059 122.381C703.335 124.5 701.292 127.375 699.93 131.007C698.719 134.488 697.887 138.498 697.433 143.038C696.979 147.427 696.752 152.118 696.752 157.112C696.903 162.106 696.979 166.949 696.979 171.64V199.107C696.979 201.074 696.979 203.193 696.979 205.463C696.979 207.582 696.601 209.246 695.844 210.457C695.39 211.062 694.785 211.516 694.028 211.819C693.271 211.97 692.515 212.197 691.758 212.5C690.85 212.803 689.791 212.878 688.58 212.727C687.521 212.576 686.461 212.5 685.402 212.5C684.04 212.5 682.451 212.5 680.635 212.5C678.819 212.651 677.003 212.727 675.187 212.727C673.371 212.727 671.706 212.651 670.193 212.5C668.68 212.197 667.545 211.743 666.788 211.138C665.88 210.381 665.35 209.246 665.199 207.733C665.199 206.068 665.199 204.404 665.199 202.739V182.536V97.184V66.312C665.199 64.3447 665.123 61.999 664.972 59.275C664.821 56.551 665.123 54.5837 665.88 53.373C666.788 52.3137 667.999 51.557 669.512 51.103C669.815 50.9517 670.117 50.9517 670.42 51.103C670.723 51.103 671.025 51.0273 671.328 50.876ZM903.725 152.799C904.027 154.01 904.027 155.372 903.725 156.885C903.422 158.398 902.892 159.382 902.136 159.836C901.379 160.441 900.244 160.895 898.731 161.198C897.369 161.349 895.78 161.501 893.964 161.652C892.299 161.652 890.559 161.652 888.743 161.652C887.078 161.501 885.565 161.425 884.203 161.425H828.815C827.755 161.425 826.696 161.425 825.637 161.425C824.729 161.425 823.896 161.576 823.14 161.879C821.929 162.484 821.172 163.09 820.87 163.695C820.567 163.998 820.264 164.603 819.962 165.511C819.659 166.268 819.583 167.024 819.735 167.781C820.037 168.689 820.189 169.597 820.189 170.505C820.34 171.262 820.567 172.094 820.87 173.002C822.08 176.634 823.518 179.661 825.183 182.082C826.999 184.352 829.42 186.395 832.447 188.211C833.657 188.968 834.868 189.497 836.079 189.8C837.441 189.951 838.803 190.254 840.165 190.708C841.375 191.011 843.04 191.238 845.159 191.389C847.277 191.54 849.093 191.465 850.607 191.162H852.65C854.163 190.859 855.525 190.557 856.736 190.254C858.098 189.8 859.384 189.346 860.595 188.892C862.108 188.135 863.773 187.152 865.589 185.941C867.556 184.73 868.994 183.52 869.902 182.309C870.658 181.25 871.415 180.266 872.172 179.358C873.08 178.299 874.139 177.542 875.35 177.088C876.863 176.331 878.755 176.029 881.025 176.18C883.446 176.18 885.64 176.18 887.608 176.18C888.516 176.18 889.424 176.18 890.332 176.18C891.391 176.029 892.299 176.104 893.056 176.407H895.326C896.839 176.71 897.898 177.088 898.504 177.542C899.109 177.845 899.412 178.526 899.412 179.585C899.563 180.644 899.487 181.552 899.185 182.309C898.428 184.428 897.596 186.319 896.688 187.984C895.78 189.649 894.72 191.313 893.51 192.978C890.18 197.972 886.397 201.982 882.16 205.009C877.922 208.036 872.626 210.608 866.27 212.727C864.605 213.332 862.94 213.711 861.276 213.862C859.611 214.013 857.871 214.316 856.055 214.77C855.449 214.921 854.768 214.921 854.012 214.77C853.406 214.77 852.801 214.846 852.196 214.997H849.699C848.942 215.3 848.034 215.375 846.975 215.224C846.067 215.224 845.234 215.148 844.478 214.997C843.267 214.846 842.208 214.846 841.3 214.997C840.392 215.148 839.408 215.073 838.349 214.77C837.592 214.467 836.76 214.316 835.852 214.316C834.944 214.316 834.111 214.165 833.355 213.862C831.69 213.559 830.025 213.181 828.361 212.727C826.696 212.424 825.183 211.895 823.821 211.138C822.156 210.533 820.567 210.003 819.054 209.549C817.692 208.944 816.405 208.263 815.195 207.506C810.352 204.479 806.039 200.999 802.256 197.064C798.472 192.978 795.37 188.287 792.949 182.99C792.192 181.325 791.587 179.661 791.133 177.996C790.679 176.18 790.073 174.364 789.317 172.548C789.165 171.943 789.09 171.413 789.09 170.959C789.09 170.354 789.014 169.748 788.863 169.143C788.257 167.327 787.879 165.36 787.728 163.241C787.576 161.122 787.425 159.004 787.274 156.885C787.274 156.128 787.198 155.296 787.047 154.388C787.047 153.48 787.122 152.648 787.274 151.891V149.167L787.955 143.719C788.56 141.146 789.09 138.649 789.544 136.228C789.998 133.807 790.679 131.537 791.587 129.418C798.094 113.679 809.141 102.556 824.729 96.049C826.847 95.141 828.966 94.5357 831.085 94.233C833.355 93.779 835.7 93.2493 838.122 92.644C839.332 92.4927 840.467 92.417 841.527 92.417C842.586 92.417 843.721 92.3413 844.932 92.19C852.65 92.0387 859.233 92.9467 864.681 94.914C870.28 96.73 875.274 99.1513 879.663 102.178C881.025 103.086 882.387 104.145 883.749 105.356C885.111 106.415 886.321 107.55 887.381 108.761C887.835 109.518 888.44 110.123 889.197 110.577C890.407 112.242 891.542 113.982 892.602 115.798C893.661 117.463 894.796 119.203 896.007 121.019C896.763 122.381 897.369 123.819 897.823 125.332C898.428 126.694 899.033 128.207 899.639 129.872C900.395 131.839 901.001 133.882 901.455 136.001C901.909 138.12 902.438 140.238 903.044 142.357C903.346 143.568 903.422 144.93 903.271 146.443C903.271 147.805 903.422 149.091 903.725 150.302V152.799ZM869.675 139.406C870.734 137.893 870.81 136.077 869.902 133.958C869.145 131.688 868.54 130.023 868.086 128.964C865.967 124.878 863.167 121.776 859.687 119.657C856.206 117.387 851.363 116.176 845.159 116.025C844.705 116.328 844.175 116.403 843.57 116.252C842.964 116.101 842.435 116.101 841.981 116.252C841.224 116.555 840.392 116.782 839.484 116.933C838.576 116.933 837.743 117.084 836.987 117.387C830.328 119.506 825.41 123.667 822.232 129.872C821.929 130.477 821.551 131.31 821.097 132.369C820.794 133.277 820.567 134.261 820.416 135.32C820.264 136.228 820.264 137.136 820.416 138.044C820.718 138.952 821.248 139.709 822.005 140.314C823.215 141.071 824.88 141.449 826.999 141.449C829.117 141.449 831.16 141.449 833.128 141.449H858.325C860.443 141.449 862.638 141.449 864.908 141.449C867.329 141.298 868.918 140.617 869.675 139.406ZM1022.5 203.42C1022.8 205.085 1022.95 206.749 1022.95 208.414C1023.1 210.079 1022.34 211.214 1020.68 211.819C1019.77 212.273 1018.71 212.5 1017.5 212.5C1016.29 212.5 1015.08 212.5 1013.87 212.5H1001.61C1000.25 212.5 998.887 212.5 997.525 212.5C996.315 212.349 995.331 211.97 994.574 211.365C993.515 210.76 992.683 209.927 992.077 208.868C991.623 207.657 990.942 206.674 990.034 205.917C989.732 205.614 989.353 205.387 988.899 205.236C988.445 204.933 987.84 204.858 987.083 205.009C986.327 205.312 985.57 205.69 984.813 206.144C984.208 206.598 983.527 206.976 982.77 207.279C982.014 207.884 981.181 208.414 980.273 208.868C979.365 209.322 978.457 209.776 977.549 210.23C975.582 211.138 973.539 211.895 971.42 212.5C969.302 212.954 967.107 213.484 964.837 214.089C963.778 214.392 962.719 214.543 961.659 214.543C960.751 214.694 959.768 214.846 958.708 214.997C958.254 214.997 957.8 214.997 957.346 214.997C956.892 215.148 956.438 215.224 955.984 215.224H953.487C951.974 215.527 950.461 215.527 948.947 215.224H946.904C945.845 214.921 944.786 214.77 943.726 214.77C942.818 214.921 941.91 214.846 941.002 214.543C939.489 214.24 938.051 213.938 936.689 213.635C935.327 213.484 934.041 213.105 932.83 212.5C928.442 210.835 924.658 208.717 921.48 206.144C918.454 203.42 916.032 199.864 914.216 195.475C913.762 194.416 913.308 193.281 912.854 192.07C912.552 190.859 912.249 189.573 911.946 188.211C911.644 187.454 911.492 186.698 911.492 185.941C911.644 185.184 911.644 184.428 911.492 183.671C911.341 183.217 911.19 182.309 911.038 180.947C911.038 179.434 911.114 178.374 911.265 177.769C911.568 176.256 911.719 174.969 911.719 173.91C912.173 172.245 912.627 170.581 913.081 168.916C913.535 167.1 914.141 165.511 914.897 164.149C917.47 159.76 920.421 156.431 923.75 154.161C927.08 151.891 931.317 149.924 936.462 148.259C938.43 147.502 940.473 146.973 942.591 146.67C944.71 146.367 946.829 145.989 948.947 145.535C950.158 145.232 951.444 145.081 952.806 145.081C954.168 144.93 955.53 144.703 956.892 144.4C957.952 144.097 959.011 144.022 960.07 144.173C961.13 144.173 962.265 144.022 963.475 143.719C964.535 143.416 965.594 143.265 966.653 143.265C967.713 143.265 968.848 143.114 970.058 142.811C973.236 142.054 976.112 141.449 978.684 140.995C981.408 140.39 983.83 139.028 985.948 136.909C987.31 135.547 988.218 134.034 988.672 132.369C988.824 131.915 988.824 131.537 988.672 131.234C988.672 130.931 988.748 130.629 988.899 130.326C989.051 130.023 989.126 129.569 989.126 128.964C989.126 128.359 989.126 127.905 989.126 127.602C988.975 126.997 988.824 126.391 988.672 125.786C988.672 125.181 988.597 124.651 988.445 124.197C986.932 119.657 983.754 116.555 978.911 114.89C977.549 114.436 975.885 114.133 973.917 113.982C972.101 113.679 970.21 113.604 968.242 113.755C966.275 113.755 964.383 113.906 962.567 114.209C960.751 114.512 959.162 114.89 957.8 115.344C956.892 115.647 955.984 116.101 955.076 116.706C954.32 117.16 953.563 117.69 952.806 118.295C952.05 118.9 951.217 119.733 950.309 120.792C949.553 121.851 949.023 122.835 948.72 123.743C947.964 125.256 947.283 126.694 946.677 128.056C946.223 129.418 945.164 130.326 943.499 130.78C942.289 131.083 941.002 131.234 939.64 131.234C938.278 131.234 936.916 131.234 935.554 131.234H926.928C926.172 131.234 925.415 131.31 924.658 131.461C923.902 131.461 923.221 131.385 922.615 131.234H920.572C920.27 131.083 919.891 131.007 919.437 131.007C918.983 131.007 918.605 130.856 918.302 130.553C917.092 130.25 916.259 129.267 915.805 127.602C915.654 126.845 915.654 126.089 915.805 125.332C915.957 124.575 916.108 123.894 916.259 123.289C916.713 121.624 917.167 120.111 917.621 118.749C918.227 117.236 918.908 115.874 919.664 114.663C920.118 113.906 920.572 113.15 921.026 112.393C921.48 111.636 921.934 110.88 922.388 110.123C923.599 108.458 925.112 106.869 926.928 105.356C927.231 105.205 927.685 104.826 928.29 104.221C929.047 103.616 929.728 103.086 930.333 102.632C930.939 102.178 931.62 101.724 932.376 101.27C934.949 99.6053 937.673 98.319 940.548 97.411C943.424 96.3517 946.375 95.368 949.401 94.46C951.217 94.006 953.109 93.7033 955.076 93.552C957.044 93.4007 959.011 93.098 960.978 92.644C961.584 92.4927 962.492 92.4927 963.702 92.644C965.064 92.7953 965.897 92.7197 966.199 92.417C972.404 92.2657 978.306 92.4927 983.905 93.098C989.656 93.7033 994.801 94.8383 999.341 96.503C1004.03 98.1677 1008.04 100.438 1011.37 103.313C1014.7 106.037 1017.27 109.593 1019.09 113.982C1020.15 116.555 1020.76 119.506 1020.91 122.835C1021.06 126.164 1021.13 129.569 1021.13 133.05V183.671C1021.13 186.546 1021.13 189.497 1021.13 192.524C1021.13 195.399 1021.44 198.048 1022.04 200.469C1022.19 200.923 1022.27 201.453 1022.27 202.058C1022.27 202.512 1022.34 202.966 1022.5 203.42ZM989.126 168.462C989.278 167.705 989.353 166.873 989.353 165.965C989.353 164.906 989.278 163.998 989.126 163.241C988.824 162.333 988.672 161.501 988.672 160.744C988.672 159.987 988.37 159.382 987.764 158.928C987.008 158.323 985.873 158.02 984.359 158.02C983.754 158.171 983.224 158.323 982.77 158.474C982.316 158.474 981.787 158.55 981.181 158.701C980.122 159.004 978.987 159.231 977.776 159.382C976.566 159.533 975.355 159.76 974.144 160.063C973.69 160.214 973.009 160.29 972.101 160.29C970.134 160.744 968.167 161.047 966.199 161.198C964.232 161.349 962.34 161.728 960.524 162.333C959.314 162.636 958.179 162.938 957.119 163.241C956.06 163.392 955.001 163.695 953.941 164.149C950.763 165.511 948.039 167.554 945.769 170.278C943.651 173.002 942.894 176.785 943.499 181.628C943.802 184.201 944.634 186.319 945.996 187.984C947.056 189.649 948.645 191.011 950.763 192.07C952.882 192.978 955.152 193.659 957.573 194.113C960.146 194.567 962.794 194.718 965.518 194.567C968.394 194.264 971.042 193.735 973.463 192.978C977.398 191.767 980.5 189.876 982.77 187.303C985.04 184.579 986.781 181.25 987.991 177.315C988.294 176.256 988.445 175.196 988.445 174.137C988.597 172.926 988.824 171.716 989.126 170.505V168.462ZM1158.75 152.572C1158.9 153.48 1158.97 154.842 1158.97 156.658C1158.97 158.474 1158.82 159.76 1158.52 160.517V163.468C1158.06 165.133 1157.76 166.722 1157.61 168.235C1157.61 169.748 1157.38 171.262 1156.93 172.775C1156.63 174.137 1156.32 175.575 1156.02 177.088C1155.72 178.45 1155.26 179.812 1154.66 181.174C1153.6 183.747 1152.54 186.168 1151.48 188.438C1150.42 190.557 1149.21 192.675 1147.85 194.794C1146.94 196.156 1145.96 197.442 1144.9 198.653C1143.99 199.712 1142.93 200.847 1141.72 202.058L1140.13 203.647C1139.37 204.404 1138.54 205.085 1137.63 205.69C1136.88 206.295 1136.12 206.901 1135.36 207.506C1134.15 208.414 1132.79 209.246 1131.28 210.003C1129.92 210.608 1128.48 211.289 1126.97 212.046C1125.45 212.803 1123.86 213.332 1122.2 213.635C1120.68 213.938 1119.1 214.24 1117.43 214.543C1116.52 214.846 1115.54 214.997 1114.48 214.997C1113.57 214.997 1112.59 215.148 1111.53 215.451H1109.49C1108.28 215.754 1107.14 215.754 1106.08 215.451H1103.81C1102.9 215.148 1101.92 214.997 1100.86 214.997C1099.95 215.148 1099.04 215.073 1098.14 214.77C1095.71 214.013 1093.37 213.332 1091.1 212.727C1088.98 212.122 1087.01 211.214 1085.2 210.003C1084.14 209.398 1083.15 208.792 1082.25 208.187C1081.34 207.43 1080.35 206.674 1079.3 205.917C1078.69 205.463 1077.78 204.782 1076.57 203.874C1075.36 202.966 1074.3 202.89 1073.39 203.647C1072.64 204.101 1072.26 204.706 1072.26 205.463C1072.26 206.068 1072.11 206.825 1071.8 207.733C1071.5 209.246 1071.35 210.987 1071.35 212.954C1071.5 214.921 1071.58 216.737 1071.58 218.402V241.556C1071.58 243.523 1071.5 245.415 1071.35 247.231C1071.35 249.198 1070.97 250.787 1070.22 251.998C1069.76 252.603 1068.93 253.057 1067.72 253.36C1066.51 253.663 1065.15 253.814 1063.63 253.814C1062.12 253.965 1060.61 253.965 1059.09 253.814C1057.58 253.814 1056.29 253.814 1055.23 253.814H1049.1C1048.65 253.814 1048.12 253.814 1047.52 253.814C1046.91 253.814 1046.38 253.738 1045.93 253.587H1044.11C1041.54 252.83 1040.18 251.317 1040.02 249.047C1039.87 246.928 1039.8 244.356 1039.8 241.329V108.08C1039.8 106.415 1039.72 104.675 1039.57 102.859C1039.57 100.892 1039.95 99.3783 1040.71 98.319C1041.31 97.2597 1042.14 96.5787 1043.2 96.276C1043.96 95.9733 1044.87 95.822 1045.93 95.822C1047.14 95.822 1048.27 95.822 1049.33 95.822H1060.23C1061.74 95.822 1063.18 95.822 1064.54 95.822C1065.9 95.822 1067.04 96.2003 1067.95 96.957C1069 97.7137 1069.53 98.6973 1069.53 99.908C1069.69 100.967 1070.06 102.102 1070.67 103.313C1070.82 103.767 1070.97 104.145 1071.12 104.448C1071.43 104.599 1071.73 104.826 1072.03 105.129C1073.7 105.28 1075.06 104.826 1076.12 103.767C1077.18 102.708 1078.24 101.8 1079.3 101.043C1081.26 99.681 1083.31 98.4703 1085.42 97.411C1087.54 96.2003 1089.89 95.2167 1092.46 94.46C1093.67 94.006 1094.96 93.7033 1096.32 93.552C1097.83 93.4007 1099.27 93.1737 1100.63 92.871C1101.24 92.7197 1101.84 92.7197 1102.45 92.871C1103.21 93.0223 1103.81 92.9467 1104.27 92.644C1112.89 92.3413 1120.16 93.552 1126.06 96.276C1132.11 98.8487 1137.26 102.254 1141.49 106.491C1142.25 107.248 1142.93 108.004 1143.54 108.761C1144.14 109.366 1144.75 110.047 1145.35 110.804C1146.41 112.166 1147.32 113.528 1148.08 114.89C1148.98 116.252 1149.82 117.614 1150.57 118.976C1150.88 119.279 1151.03 119.657 1151.03 120.111C1151.18 120.565 1151.41 121.095 1151.71 121.7C1152.62 123.213 1153.45 125.029 1154.21 127.148C1154.51 128.056 1154.81 129.04 1155.11 130.099C1155.42 131.007 1155.72 131.991 1156.02 133.05C1156.63 134.866 1157 136.758 1157.16 138.725C1157.46 140.692 1157.84 142.735 1158.29 144.854C1158.29 145.611 1158.29 146.443 1158.29 147.351C1158.44 148.259 1158.59 149.167 1158.75 150.075V152.572ZM1126.74 157.793C1126.89 157.036 1126.97 156.053 1126.97 154.842C1126.97 153.48 1126.89 152.421 1126.74 151.664V149.621C1126.44 148.713 1126.28 147.729 1126.28 146.67C1126.28 145.611 1126.13 144.551 1125.83 143.492C1125.53 141.979 1125.22 140.541 1124.92 139.179C1124.62 137.666 1124.17 136.304 1123.56 135.093C1121.74 130.25 1119.4 126.391 1116.52 123.516C1113.65 120.641 1109.56 118.522 1104.27 117.16C1103.05 116.857 1101.69 116.706 1100.18 116.706C1098.82 116.706 1097.46 116.706 1096.09 116.706C1095.49 116.857 1094.96 116.933 1094.5 116.933C1094.05 116.933 1093.52 117.009 1092.92 117.16C1091.86 117.463 1090.8 117.765 1089.74 118.068C1088.83 118.219 1087.92 118.522 1087.01 118.976C1083.08 120.641 1079.98 123.213 1077.71 126.694C1075.59 130.175 1073.85 134.034 1072.49 138.271C1072.18 139.482 1071.96 140.768 1071.8 142.13C1071.65 143.341 1071.43 144.551 1071.12 145.762C1070.97 146.367 1070.9 147.351 1070.9 148.713C1070.59 149.318 1070.52 150.075 1070.67 150.983C1070.82 151.74 1070.82 152.496 1070.67 153.253C1070.37 154.161 1070.37 154.993 1070.67 155.75V158.474C1070.67 159.231 1070.67 159.912 1070.67 160.517C1070.67 161.122 1070.82 161.728 1071.12 162.333C1071.12 163.392 1071.2 164.225 1071.35 164.83C1071.5 165.738 1071.65 166.646 1071.8 167.554C1071.96 168.462 1072.18 169.37 1072.49 170.278C1073.85 174.667 1075.44 178.299 1077.25 181.174C1079.22 183.898 1081.94 186.319 1085.42 188.438C1087.54 189.649 1090.04 190.632 1092.92 191.389C1093.52 191.54 1094.05 191.616 1094.5 191.616C1094.96 191.465 1095.49 191.465 1096.09 191.616C1096.7 191.767 1097.61 191.919 1098.82 192.07C1100.03 192.07 1101.01 191.994 1101.77 191.843C1102.98 191.54 1104.19 191.313 1105.4 191.162C1106.76 190.859 1108.05 190.481 1109.26 190.027C1112.89 188.514 1115.84 186.395 1118.11 183.671C1120.38 180.947 1122.27 177.769 1123.79 174.137C1124.54 172.321 1125.07 170.429 1125.38 168.462C1125.68 166.495 1126.06 164.452 1126.51 162.333C1126.51 161.576 1126.51 160.82 1126.51 160.063C1126.66 159.306 1126.74 158.55 1126.74 157.793Z" fill="white"/>
</g>
<defs>
<clipPath id="clip0_1_2">
<rect width="1200" height="260" fill="white"/>
</clipPath>
</defs>
</svg>
