<svg width="100" height="100" viewBox="0 0 100 100" fill="none" xmlns="http://www.w3.org/2000/svg">
<rect width="100" height="100" rx="22" fill="#3C3C3C"/>
<path d="M49.2458 11.3364C49.0625 11.5352 46.5579 15.7866 43.6868 20.7873L38.4486 29.8865L27.6056 29.9629C21.6495 30.0088 16.6709 30.1006 16.5335 30.1617C16.1822 30.33 15.9073 31.0028 16.0295 31.4004C16.0906 31.5687 18.5188 35.8659 21.451 40.9431L26.7656 50.1493L21.4815 59.2944C18.5799 64.3104 16.1517 68.5924 16.0753 68.7912C15.8768 69.3111 16.1669 69.9534 16.6862 70.1828C16.9763 70.2898 18.5493 70.3357 21.7259 70.3051L26.3533 70.2593L26.6434 69.8922C27.0252 69.4335 27.01 68.9441 26.6129 68.4394L26.3074 68.0418H23.9098C22.4895 68.0418 21.5884 67.9806 21.6801 67.9042C22.123 67.476 33.0881 61.2977 33.1951 61.4048C33.3325 61.5577 37.013 67.8736 37.013 67.9806C37.013 68.0112 35.4095 68.0418 33.4394 68.0418H29.8505L29.5451 68.4394C29.148 68.9441 29.1327 69.4335 29.5145 69.8922C29.8047 70.2593 29.82 70.2593 34.1266 70.3357L38.4486 70.4122L43.6868 79.5114C46.5579 84.5121 49.0625 88.7635 49.2458 88.947C49.429 89.1458 49.7497 89.2987 49.9941 89.2987C50.2384 89.2987 50.5592 89.1458 50.7424 88.947C50.9257 88.7635 53.4303 84.5121 56.3014 79.5114L61.5396 70.4122L72.4285 70.3357L83.3173 70.2593L83.6991 69.8158C83.9587 69.4946 84.0503 69.2652 83.974 69.0053C83.9282 68.8065 81.4847 64.4786 78.5525 59.3861L73.2226 50.1493L78.5525 40.9125C81.4847 35.82 83.9282 31.4922 83.974 31.2934C84.0503 31.0334 83.9587 30.804 83.6991 30.4829L83.3173 30.0394L72.4285 29.9629L61.5396 29.8865L56.3014 20.7873C53.4303 15.7866 50.9257 11.5352 50.7424 11.3364C50.5592 11.1529 50.2384 11 49.9941 11C49.7497 11 49.429 11.1529 49.2458 11.3364ZM48.7723 23.3106V29.9629H44.9391C42.5262 29.9629 41.1364 29.9018 41.167 29.81C41.228 29.6112 48.6807 16.6583 48.7418 16.6583C48.7571 16.6583 48.7723 19.6556 48.7723 23.3106ZM55.0949 23.2647C57.1566 26.8585 58.8518 29.8406 58.8518 29.8865C58.8518 29.9323 57.1413 29.9629 55.0338 29.9629H51.2158V23.28C51.2158 19.6098 51.2464 16.643 51.2769 16.6736C51.3075 16.7041 53.0179 19.6709 55.0949 23.2647ZM36.9825 32.3792C36.9672 32.4556 34.9513 35.9577 32.5231 40.1785L28.0943 47.8401L27.8499 47.4272C27.4528 46.7849 19.5115 32.9909 19.3129 32.5933L19.1297 32.2568H28.079C33.0118 32.2568 37.013 32.318 36.9825 32.3792ZM47.9629 32.3639C47.9171 32.4404 44.6795 38.0528 40.7546 44.8733C36.8298 51.6786 33.6074 57.2757 33.5768 57.3063C33.5616 57.3216 32.6147 55.7159 31.4693 53.7431L29.4076 50.1493L34.371 41.5395C37.0894 36.8141 39.426 32.7921 39.5481 32.5933C39.762 32.2568 39.7772 32.2568 43.9006 32.2568C46.1761 32.2568 47.9935 32.3027 47.9629 32.3639ZM60.44 32.5933C60.5622 32.7921 62.8988 36.8141 65.6172 41.5395L70.5806 50.1493L68.5189 53.7431C67.3735 55.7159 66.4266 57.3216 66.4113 57.3063C66.3808 57.2757 63.1584 51.6786 59.2336 44.8733C55.3087 38.0528 52.0711 32.4404 52.0253 32.3639C51.9947 32.3027 53.8121 32.2568 56.0876 32.2568C60.211 32.2568 60.2262 32.2568 60.44 32.5933ZM80.6753 32.5933C80.5073 32.9297 71.9856 47.7484 71.9245 47.8095C71.8939 47.8401 63.0973 32.6392 63.0057 32.3792C62.9752 32.318 66.9764 32.2568 71.9092 32.2568H80.8585L80.6753 32.5933ZM48.4516 49.6753C47.7186 50.1799 36.9367 56.3888 36.8756 56.3276C36.845 56.3123 39.5023 51.648 42.7552 45.9897L48.696 35.6977L48.7418 42.5794C48.7723 49.4459 48.7723 49.4612 48.4516 49.6753ZM63.1126 56.3276C63.0821 56.3582 60.4095 54.8442 57.1719 52.9785L51.2922 49.5682L51.2464 42.5641L51.2158 35.5601L57.1871 45.9132C60.4706 51.6174 63.1432 56.297 63.1126 56.3276ZM56.2556 55.0889L62.1199 58.4839L56.057 58.5297C52.7278 58.545 47.2604 58.545 43.9312 58.5297L37.8682 58.4839L43.9006 55.0124C47.3979 52.9785 50.0094 51.5563 50.1468 51.6174C50.269 51.6633 53.0179 53.2232 56.2556 55.0889ZM30.0491 55.8688C31.1181 57.7039 31.958 59.2332 31.9428 59.2485C31.8664 59.325 21.2066 65.4726 20.779 65.702L20.3514 65.9161L20.6263 65.3962C21.115 64.4633 28.0637 52.4585 28.0943 52.4891C28.1095 52.5044 28.9953 54.0184 30.0491 55.8688ZM75.605 58.8662C80.1102 66.6808 79.7284 65.9773 79.2855 65.7326C78.8884 65.5185 68.1218 59.3097 68.0454 59.2485C68.0302 59.2332 68.8854 57.6886 69.9544 55.8382C71.0234 53.9725 71.9092 52.4738 71.9245 52.4891C71.9398 52.5044 73.6044 55.3794 75.605 58.8662ZM64.3496 60.9154C64.3496 60.946 63.4333 62.5364 62.3185 64.4633L60.3026 67.9654H49.9941H39.6856L37.6697 64.4633C36.5549 62.5364 35.6385 60.946 35.6385 60.9154C35.6385 60.8848 42.0985 60.8542 49.9941 60.8542C57.8896 60.8542 64.3496 60.8848 64.3496 60.9154ZM72.7492 64.6162C75.7272 66.3443 78.2318 67.8277 78.3234 67.9042C78.3997 67.9806 75.437 68.0418 70.718 68.0418C66.4572 68.0418 62.9752 68.0112 62.9752 67.9806C62.9752 67.9195 63.8609 66.3749 65.9837 62.7199C66.6251 61.6189 66.8695 61.313 67.068 61.3895C67.2055 61.4354 69.7559 62.8882 72.7492 64.6162ZM58.8212 70.4734C58.7143 70.7945 50.0705 85.7661 49.9941 85.7661C49.9177 85.7661 41.2739 70.7945 41.167 70.4734C41.1364 70.3969 44.4504 70.3357 49.9941 70.3357C55.5378 70.3357 58.8518 70.3969 58.8212 70.4734Z" fill="#FBFBFB"/>
</svg>
